<mxfile host="app.diagrams.net" modified="2021-01-07T10:05:39.199Z" agent="5.0 (Windows)" etag="Ei6mO0gU696tZNHGXjeP" version="14.1.1" type="github">
  <diagram id="fE-WkxR2c8OMqfuql4eS" name="Page-1">
    <mxGraphModel dx="1038" dy="547" grid="1" gridSize="10" guides="1" tooltips="1" connect="1" arrows="1" fold="1" page="1" pageScale="1" pageWidth="1169" pageHeight="827" math="0" shadow="0">
      <root>
        <mxCell id="0" />
        <mxCell id="1" parent="0" />
        <mxCell id="hdIYoK1NiyLCy60N3JtP-1" value="User initiated knowledge sharing opportunities" style="swimlane;" vertex="1" parent="1">
          <mxGeometry x="10" y="10" width="1150" height="810" as="geometry" />
        </mxCell>
        <mxCell id="hdIYoK1NiyLCy60N3JtP-2" value="Start" style="rounded=1;whiteSpace=wrap;html=1;" vertex="1" parent="hdIYoK1NiyLCy60N3JtP-1">
          <mxGeometry x="210" y="70" width="100" height="60" as="geometry" />
        </mxCell>
        <mxCell id="hdIYoK1NiyLCy60N3JtP-3" value="User/s request for facilitation of the activity to KM Officer" style="rounded=0;whiteSpace=wrap;html=1;" vertex="1" parent="hdIYoK1NiyLCy60N3JtP-1">
          <mxGeometry x="190" y="210" width="140" height="70" as="geometry" />
        </mxCell>
        <mxCell id="hdIYoK1NiyLCy60N3JtP-4" value="" style="edgeStyle=orthogonalEdgeStyle;rounded=0;orthogonalLoop=1;jettySize=auto;html=1;" edge="1" parent="hdIYoK1NiyLCy60N3JtP-1" source="hdIYoK1NiyLCy60N3JtP-2" target="hdIYoK1NiyLCy60N3JtP-3">
          <mxGeometry relative="1" as="geometry">
            <mxPoint x="260" y="210" as="targetPoint" />
          </mxGeometry>
        </mxCell>
        <mxCell id="hdIYoK1NiyLCy60N3JtP-5" value="no" style="text;html=1;strokeColor=none;fillColor=none;align=center;verticalAlign=middle;whiteSpace=wrap;rounded=0;" vertex="1" parent="hdIYoK1NiyLCy60N3JtP-1">
          <mxGeometry x="252" y="590" width="40" height="20" as="geometry" />
        </mxCell>
        <mxCell id="hdIYoK1NiyLCy60N3JtP-7" value="End" style="rounded=1;whiteSpace=wrap;html=1;" vertex="1" parent="hdIYoK1NiyLCy60N3JtP-1">
          <mxGeometry x="820" y="490" width="100" height="60" as="geometry" />
        </mxCell>
        <mxCell id="hdIYoK1NiyLCy60N3JtP-21" value="Save" style="whiteSpace=wrap;html=1;rounded=0;" vertex="1" parent="hdIYoK1NiyLCy60N3JtP-1">
          <mxGeometry x="450" y="490" width="120" height="60" as="geometry" />
        </mxCell>
        <mxCell id="hdIYoK1NiyLCy60N3JtP-20" value="" style="edgeStyle=orthogonalEdgeStyle;rounded=0;orthogonalLoop=1;jettySize=auto;html=1;entryX=0;entryY=0.5;entryDx=0;entryDy=0;" edge="1" parent="hdIYoK1NiyLCy60N3JtP-1" source="hdIYoK1NiyLCy60N3JtP-21" target="hdIYoK1NiyLCy60N3JtP-7">
          <mxGeometry relative="1" as="geometry">
            <mxPoint x="800" y="520" as="targetPoint" />
          </mxGeometry>
        </mxCell>
        <mxCell id="hdIYoK1NiyLCy60N3JtP-22" value="KM officer plans for facilitation (prepare tools, venue and materials)" style="rounded=0;whiteSpace=wrap;html=1;" vertex="1" parent="hdIYoK1NiyLCy60N3JtP-1">
          <mxGeometry x="190" y="470" width="140" height="70" as="geometry" />
        </mxCell>
        <mxCell id="hdIYoK1NiyLCy60N3JtP-9" value="" style="edgeStyle=orthogonalEdgeStyle;rounded=0;orthogonalLoop=1;jettySize=auto;html=1;" edge="1" parent="1" source="hdIYoK1NiyLCy60N3JtP-10" target="hdIYoK1NiyLCy60N3JtP-22">
          <mxGeometry relative="1" as="geometry">
            <mxPoint x="270" y="490" as="targetPoint" />
          </mxGeometry>
        </mxCell>
        <mxCell id="hdIYoK1NiyLCy60N3JtP-10" value="KM evaluates the activity" style="whiteSpace=wrap;html=1;rounded=0;" vertex="1" parent="1">
          <mxGeometry x="210" y="360" width="120" height="60" as="geometry" />
        </mxCell>
        <mxCell id="hdIYoK1NiyLCy60N3JtP-11" value="" style="edgeStyle=orthogonalEdgeStyle;rounded=0;orthogonalLoop=1;jettySize=auto;html=1;" edge="1" parent="1" source="hdIYoK1NiyLCy60N3JtP-3" target="hdIYoK1NiyLCy60N3JtP-10">
          <mxGeometry relative="1" as="geometry" />
        </mxCell>
        <mxCell id="hdIYoK1NiyLCy60N3JtP-12" value="" style="edgeStyle=orthogonalEdgeStyle;rounded=0;orthogonalLoop=1;jettySize=auto;html=1;" edge="1" parent="1" target="hdIYoK1NiyLCy60N3JtP-16">
          <mxGeometry relative="1" as="geometry">
            <mxPoint x="270" y="570" as="sourcePoint" />
          </mxGeometry>
        </mxCell>
        <mxCell id="hdIYoK1NiyLCy60N3JtP-15" value="" style="edgeStyle=orthogonalEdgeStyle;rounded=0;orthogonalLoop=1;jettySize=auto;html=1;" edge="1" parent="1" source="hdIYoK1NiyLCy60N3JtP-16" target="hdIYoK1NiyLCy60N3JtP-18">
          <mxGeometry relative="1" as="geometry" />
        </mxCell>
        <mxCell id="hdIYoK1NiyLCy60N3JtP-16" value="Create new knowledge/topic" style="whiteSpace=wrap;html=1;rounded=0;" vertex="1" parent="1">
          <mxGeometry x="210" y="660" width="120" height="60" as="geometry" />
        </mxCell>
        <mxCell id="hdIYoK1NiyLCy60N3JtP-17" value="" style="edgeStyle=orthogonalEdgeStyle;rounded=0;orthogonalLoop=1;jettySize=auto;html=1;entryX=0.5;entryY=1;entryDx=0;entryDy=0;" edge="1" parent="1" source="hdIYoK1NiyLCy60N3JtP-18" target="hdIYoK1NiyLCy60N3JtP-21">
          <mxGeometry relative="1" as="geometry">
            <mxPoint x="610" y="690" as="targetPoint" />
          </mxGeometry>
        </mxCell>
        <mxCell id="hdIYoK1NiyLCy60N3JtP-18" value="Add content to the new knowledge page/topic" style="whiteSpace=wrap;html=1;rounded=0;" vertex="1" parent="1">
          <mxGeometry x="410" y="660" width="120" height="60" as="geometry" />
        </mxCell>
      </root>
    </mxGraphModel>
  </diagram>
</mxfile>
